<svg width="152" height="152" viewBox="0 0 152 152" fill="none" xmlns="http://www.w3.org/2000/svg">
<g clip-path="url(#clip0_80_2)">
<path d="M110.356 101.107C110.356 90.7204 105.831 77.9979 98.6366 68.3998C92.551 60.2803 84.5986 54.4755 75.9998 54.4755C67.4013 54.4755 59.4489 60.2803 53.3633 68.3998C46.1693 77.998 41.6441 90.7204 41.6441 101.107C41.6441 110.241 45.2839 115.783 51.1684 119.02C57.4022 122.449 66.2098 123.499 75.9998 123.499C85.79 123.499 94.5978 122.449 100.832 119.02C106.716 115.783 110.356 110.241 110.356 101.107ZM102.422 65.5608C110.208 75.9492 115.106 89.7765 115.106 101.107C115.106 112.258 110.523 119.101 103.114 123.176C96.0538 127.06 86.4957 128.25 75.9998 128.25C65.5042 128.25 55.9461 127.06 48.8861 123.176C41.4769 119.101 36.894 112.258 36.894 101.107C36.894 89.7764 41.7919 75.9494 49.5782 65.5609C56.499 56.327 65.7431 49.7254 75.9999 49.7254C86.2569 49.7254 95.5009 56.327 102.422 65.5608Z" fill="#00A65F"/>
<path d="M86.4174 28.5717L77.1192 33.49L76.0152 34.074L74.9113 33.49L65.5886 28.5585L70.0091 43.3186C70.6096 43.1855 71.2162 43.0715 71.8285 42.9766C73.2582 42.7551 74.6548 42.6439 76.0153 42.6439C77.3901 42.6439 78.7653 42.7494 80.1385 42.9593C80.734 43.0504 81.3321 43.1626 81.9327 43.296L86.4174 28.5717ZM76.0153 28.7127L84.3197 24.32C85.4964 23.6975 86.7418 23.6378 87.8514 23.9757C88.4539 24.1591 89.0082 24.4597 89.4809 24.8498C89.9632 25.2478 90.3671 25.7368 90.6589 26.2886C91.1978 27.3075 91.3721 28.5408 90.9821 29.8218L85.7943 46.8548L85.1014 49.1299L82.8348 48.4319C81.7266 48.0906 80.5921 47.8309 79.4334 47.6537C78.3029 47.4808 77.163 47.3941 76.0153 47.3941C74.8175 47.3941 73.6625 47.4804 72.5523 47.6524C71.4211 47.8277 70.2699 48.0983 69.1013 48.4635L66.8127 49.1788L66.1233 46.8771L61.0046 29.7854C60.6241 28.5153 60.8019 27.2886 61.3405 26.2707C61.6343 25.7156 62.0396 25.2257 62.5224 24.8291C63.0096 24.4291 63.5691 24.1254 64.1667 23.9464C65.2676 23.6168 66.5048 23.6819 67.6793 24.3032L76.0153 28.7127Z" fill="#00A65F"/>
<path d="M77.6284 112.642V108.319V107.604L78.3329 107.46C80.6966 106.978 82.6268 105.91 83.9581 104.431C85.2637 102.981 85.9968 101.121 85.9968 99.0233C85.9968 96.8951 85.4371 95.1783 84.2194 93.7569C82.9558 92.2818 80.9725 91.0802 78.1677 90.0314H78.1607C75.9643 89.1918 74.4761 88.4797 73.5135 87.7546C72.3734 86.8959 71.9116 86.0079 71.9116 84.9243C71.9116 83.7277 72.4324 82.7657 73.3856 82.1029C74.24 81.5087 75.4399 81.1829 76.9063 81.1829C78.5726 81.1829 79.9552 81.4557 81.096 81.8168C82.0739 82.1264 82.8671 82.5004 83.5072 82.8208L84.7131 78.7458C84.1164 78.459 83.3708 78.1407 82.4518 77.8655C81.4295 77.5591 80.1945 77.3066 78.7151 77.2114L77.8904 77.1584V76.3352V72.6061H74.3338V76.6536V77.3635L73.6361 77.5126C71.3457 78.0027 69.5049 79.0289 68.2449 80.4469C67.0077 81.8394 66.3248 83.6266 66.3248 85.6671C66.3248 88.0981 67.3424 89.8508 68.8572 91.1771C70.4497 92.5713 72.608 93.5333 74.7504 94.3152L74.751 94.3133C76.6675 94.9978 78.023 95.6867 78.9249 96.4752C79.9459 97.3676 80.3953 98.3621 80.3953 99.5668C80.3953 100.854 79.7947 101.914 78.7323 102.648C77.7682 103.314 76.4221 103.692 74.8198 103.692C73.0025 103.692 71.3711 103.34 70.0201 102.887C68.8506 102.494 67.8926 102.024 67.2088 101.641L66.0029 105.854C66.8358 106.35 67.9066 106.786 69.0983 107.124C70.3818 107.489 71.7921 107.736 73.1866 107.822L74.0148 107.873V108.698V112.642L77.6284 112.642Z" fill="#00A65F"/>
</g>
<defs>
<clipPath id="clip0_80_2">
<rect width="152" height="152" fill="white"/>
</clipPath>
</defs>
</svg>
