<svg width="179" height="35" viewBox="0 0 179 35" fill="none" xmlns="http://www.w3.org/2000/svg">
<path d="M0 3C0 1.34315 1.34315 0 3 0H110.81L176 -3.06686e-05C177.657 -3.14481e-05 179 1.34311 179 2.99997V11.7819V32C179 33.6569 177.657 35 176 35H104.145H3C1.34314 35 0 33.6569 0 32V3Z" fill="#171717"/>
<path d="M16.44 26.8V24.18C15.16 24.0733 14.1533 23.6667 13.42 22.96C12.6867 22.24 12.3133 21.3 12.3 20.14H14.44C14.44 20.7133 14.6133 21.1867 14.96 21.56C15.32 21.92 15.8133 22.1467 16.44 22.24V17.52L15.98 17.4C14.9133 17.0933 14.0867 16.5733 13.5 15.84C12.9267 15.0933 12.64 14.2067 12.64 13.18C12.64 12.0733 12.98 11.1667 13.66 10.46C14.34 9.75333 15.2667 9.34667 16.44 9.24V6.6H17.66V9.22C18.8333 9.32667 19.7667 9.73333 20.46 10.44C21.1533 11.1333 21.5067 12.04 21.52 13.16H19.36C19.36 12.6133 19.2133 12.1667 18.92 11.82C18.6267 11.46 18.2067 11.2333 17.66 11.14V15.64L18.38 15.86C19.4467 16.1533 20.2667 16.6733 20.84 17.42C21.4133 18.1667 21.7 19.06 21.7 20.1C21.7 21.2333 21.3333 22.1667 20.6 22.9C19.88 23.6333 18.9 24.06 17.66 24.18V26.8H16.44ZM17.66 22.26C18.26 22.1667 18.7267 21.94 19.06 21.58C19.3933 21.22 19.56 20.7533 19.56 20.18C19.56 19.5933 19.3733 19.0933 19 18.68C18.64 18.2667 18.1333 18.0067 17.48 17.9L17.66 17.48V22.26ZM16.44 16.24V11.14C15.9067 11.2333 15.4933 11.4467 15.2 11.78C14.92 12.1 14.78 12.52 14.78 13.04C14.78 13.68 14.9867 14.22 15.4 14.66C15.8267 15.0867 16.4267 15.34 17.2 15.42L16.44 16.24ZM108.898 24V22.08H111.838V11.32H108.898V9.4H116.978V11.32H114.038V22.08H116.978V24H108.898ZM147.834 24V11.38H143.934V9.38H153.894V11.38H149.994V24H147.834Z" fill="#05EF95"/>
<path d="M40.6044 24.18C39.8177 24.18 39.1244 24.0533 38.5244 23.8C37.9377 23.5467 37.471 23.2 37.1244 22.76C36.791 22.3067 36.5977 21.7733 36.5444 21.16H38.7044C38.7577 21.52 38.951 21.8133 39.2844 22.04C39.6177 22.2533 40.0577 22.36 40.6044 22.36H41.4644C42.1177 22.36 42.611 22.2267 42.9444 21.96C43.2777 21.6933 43.4444 21.34 43.4444 20.9C43.4444 20.4733 43.291 20.14 42.9844 19.9C42.691 19.6467 42.251 19.48 41.6644 19.4L40.2444 19.18C39.071 18.9933 38.2044 18.66 37.6444 18.18C37.0977 17.6867 36.8244 16.96 36.8244 16C36.8244 14.9867 37.151 14.2067 37.8044 13.66C38.471 13.1 39.451 12.82 40.7444 12.82H41.5044C42.651 12.82 43.5644 13.0867 44.2444 13.62C44.9377 14.14 45.331 14.84 45.4244 15.72H43.2644C43.211 15.4 43.031 15.14 42.7244 14.94C42.431 14.74 42.0244 14.64 41.5044 14.64H40.7444C40.1177 14.64 39.6577 14.76 39.3644 15C39.0844 15.2267 38.9444 15.5667 38.9444 16.02C38.9444 16.42 39.071 16.72 39.3244 16.92C39.5777 17.12 39.971 17.26 40.5044 17.34L41.9644 17.58C43.2044 17.7533 44.111 18.1 44.6844 18.62C45.271 19.1267 45.5644 19.8667 45.5644 20.84C45.5644 21.8933 45.2177 22.7133 44.5244 23.3C43.8444 23.8867 42.8244 24.18 41.4644 24.18H40.6044ZM52.9566 24.2C51.6366 24.2 50.5832 23.82 49.7966 23.06C49.0099 22.2867 48.6166 21.24 48.6166 19.92V13H50.7766V19.92C50.7766 20.68 50.9699 21.2733 51.3566 21.7C51.7432 22.1133 52.2766 22.32 52.9566 22.32C53.6499 22.32 54.1899 22.1133 54.5766 21.7C54.9766 21.2733 55.1766 20.68 55.1766 19.92V13H57.3366V19.92C57.3366 21.24 56.9366 22.2867 56.1366 23.06C55.3499 23.82 54.2899 24.2 52.9566 24.2ZM64.1888 24.2C63.0821 24.2 62.1954 23.8267 61.5288 23.08C60.8621 22.3333 60.5288 21.3267 60.5288 20.06V16.96C60.5288 15.68 60.8621 14.6667 61.5288 13.92C62.1954 13.1733 63.0821 12.8 64.1888 12.8C65.0954 12.8 65.8154 13.0533 66.3488 13.56C66.8821 14.0533 67.1488 14.7333 67.1488 15.6L66.6888 15.1H67.1888L67.1288 12.54V9.4H69.2888V24H67.1488V21.9H66.6888L67.1488 21.4C67.1488 22.2667 66.8821 22.9533 66.3488 23.46C65.8154 23.9533 65.0954 24.2 64.1888 24.2ZM64.9288 22.32C65.6088 22.32 66.1421 22.1133 66.5288 21.7C66.9288 21.2733 67.1288 20.6867 67.1288 19.94V17.06C67.1288 16.3133 66.9288 15.7333 66.5288 15.32C66.1421 14.8933 65.6088 14.68 64.9288 14.68C64.2221 14.68 63.6688 14.8867 63.2688 15.3C62.8688 15.7 62.6688 16.2867 62.6688 17.06V19.94C62.6688 20.7133 62.8688 21.3067 63.2688 21.72C63.6688 22.12 64.2221 22.32 64.9288 22.32ZM76.9609 24.18C76.0543 24.18 75.2676 24.0067 74.6009 23.66C73.9343 23.3133 73.4209 22.82 73.0609 22.18C72.7009 21.54 72.5209 20.7867 72.5209 19.92V17.08C72.5209 16.2 72.7009 15.4467 73.0609 14.82C73.4209 14.18 73.9343 13.6867 74.6009 13.34C75.2676 12.9933 76.0543 12.82 76.9609 12.82C77.8676 12.82 78.6543 12.9933 79.3209 13.34C79.9876 13.6867 80.5009 14.18 80.8609 14.82C81.2209 15.4467 81.4009 16.2 81.4009 17.08V19.92C81.4009 20.7867 81.2209 21.54 80.8609 22.18C80.5009 22.82 79.9876 23.3133 79.3209 23.66C78.6543 24.0067 77.8676 24.18 76.9609 24.18ZM76.9609 22.28C77.6943 22.28 78.2609 22.08 78.6609 21.68C79.0609 21.2667 79.2609 20.68 79.2609 19.92V17.08C79.2609 16.3067 79.0609 15.72 78.6609 15.32C78.2609 14.92 77.6943 14.72 76.9609 14.72C76.2409 14.72 75.6743 14.92 75.2609 15.32C74.8609 15.72 74.6609 16.3067 74.6609 17.08V19.92C74.6609 20.68 74.8609 21.2667 75.2609 21.68C75.6743 22.08 76.2409 22.28 76.9609 22.28ZM96.6253 24V9.4H101.205C102.125 9.4 102.925 9.58 103.605 9.94C104.285 10.2867 104.812 10.78 105.185 11.42C105.572 12.06 105.765 12.8133 105.765 13.68C105.765 14.6533 105.512 15.5 105.005 16.22C104.512 16.9267 103.839 17.4267 102.985 17.72L105.965 24H103.505L100.845 18H98.7853V24H96.6253ZM98.7853 16.1H101.205C101.925 16.1 102.499 15.8867 102.925 15.46C103.352 15.02 103.565 14.44 103.565 13.72C103.565 12.9733 103.352 12.3867 102.925 11.96C102.499 11.5333 101.925 11.32 101.205 11.32H98.7853V16.1ZM123.19 24V16.12H120.07V14.16H123.19V12.38C123.19 11.46 123.483 10.7333 124.07 10.2C124.656 9.66667 125.456 9.4 126.47 9.4H129.69V11.32H126.51C126.136 11.32 125.843 11.4133 125.63 11.6C125.43 11.7867 125.33 12.0533 125.33 12.4V14.16H129.69V16.12H125.33V24H123.19ZM135.822 24.2C134.675 24.2 133.769 23.9067 133.102 23.32C132.449 22.72 132.122 21.9067 132.122 20.88C132.122 19.84 132.469 19.0267 133.162 18.44C133.869 17.84 134.835 17.54 136.062 17.54H139.122V16.52C139.122 15.92 138.935 15.4533 138.562 15.12C138.189 14.7867 137.662 14.62 136.982 14.62C136.382 14.62 135.882 14.7533 135.482 15.02C135.082 15.2733 134.849 15.6133 134.782 16.04H132.662C132.782 15.0533 133.235 14.2667 134.022 13.68C134.822 13.0933 135.829 12.8 137.042 12.8C138.349 12.8 139.382 13.1333 140.142 13.8C140.902 14.4533 141.282 15.3467 141.282 16.48V24H139.182V21.98H138.822L139.182 21.58C139.182 22.38 138.875 23.02 138.262 23.5C137.649 23.9667 136.835 24.2 135.822 24.2ZM136.462 22.54C137.235 22.54 137.869 22.3467 138.362 21.96C138.869 21.56 139.122 21.0533 139.122 20.44V19H136.102C135.542 19 135.095 19.1533 134.762 19.46C134.442 19.7667 134.282 20.1867 134.282 20.72C134.282 21.28 134.475 21.7267 134.862 22.06C135.249 22.38 135.782 22.54 136.462 22.54Z" fill="white"/>
</svg>
