<svg width="72" height="26" viewBox="0 0 72 26" fill="none" xmlns="http://www.w3.org/2000/svg">
<path d="M1.68 20V5.4H6.26C7.18 5.4 7.98 5.58 8.66 5.94C9.34 6.28667 9.86667 6.78 10.24 7.42C10.6267 8.06 10.82 8.81333 10.82 9.68C10.82 10.6533 10.5667 11.5 10.06 12.22C9.56667 12.9267 8.89333 13.4267 8.04 13.72L11.02 20H8.56L5.9 14H3.84V20H1.68ZM3.84 12.1H6.26C6.98 12.1 7.55333 11.8867 7.98 11.46C8.40667 11.02 8.62 10.44 8.62 9.72C8.62 8.97333 8.40667 8.38667 7.98 7.96C7.55333 7.53333 6.98 7.32 6.26 7.32H3.84V12.1ZM28.2444 20V12.12H25.1244V10.16H28.2444V8.38C28.2444 7.46 28.5377 6.73333 29.1244 6.2C29.711 5.66667 30.511 5.4 31.5244 5.4H34.7444V7.32H31.5644C31.191 7.32 30.8977 7.41333 30.6844 7.6C30.4844 7.78667 30.3844 8.05333 30.3844 8.4V10.16H34.7444V12.12H30.3844V20H28.2444ZM40.8766 20.2C39.7299 20.2 38.8232 19.9067 38.1566 19.32C37.5032 18.72 37.1766 17.9067 37.1766 16.88C37.1766 15.84 37.5232 15.0267 38.2166 14.44C38.9232 13.84 39.8899 13.54 41.1166 13.54H44.1766V12.52C44.1766 11.92 43.9899 11.4533 43.6166 11.12C43.2432 10.7867 42.7166 10.62 42.0366 10.62C41.4366 10.62 40.9366 10.7533 40.5366 11.02C40.1366 11.2733 39.9032 11.6133 39.8366 12.04H37.7166C37.8366 11.0533 38.2899 10.2667 39.0766 9.68C39.8766 9.09333 40.8832 8.8 42.0966 8.8C43.4032 8.8 44.4366 9.13333 45.1966 9.8C45.9566 10.4533 46.3366 11.3467 46.3366 12.48V20H44.2366V17.98H43.8766L44.2366 17.58C44.2366 18.38 43.9299 19.02 43.3166 19.5C42.7032 19.9667 41.8899 20.2 40.8766 20.2ZM41.5166 18.54C42.2899 18.54 42.9232 18.3467 43.4166 17.96C43.9232 17.56 44.1766 17.0533 44.1766 16.44V15H41.1566C40.5966 15 40.1499 15.1533 39.8166 15.46C39.4966 15.7667 39.3366 16.1867 39.3366 16.72C39.3366 17.28 39.5299 17.7267 39.9166 18.06C40.3032 18.38 40.8366 18.54 41.5166 18.54ZM65.9609 20.2C65.4276 20.2 65.0009 20.0467 64.6809 19.74C64.3609 19.42 64.2009 18.9933 64.2009 18.46C64.2009 17.9133 64.3609 17.48 64.6809 17.16C65.0009 16.8267 65.4276 16.66 65.9609 16.66C66.5076 16.66 66.9343 16.8267 67.2409 17.16C67.5609 17.48 67.7209 17.9133 67.7209 18.46C67.7209 18.9933 67.5609 19.42 67.2409 19.74C66.9343 20.0467 66.5076 20.2 65.9609 20.2Z" fill="white"/>
<path d="M13.9522 20V18.08H16.8922V7.32H13.9522V5.4H22.0322V7.32H19.0922V18.08H22.0322V20H13.9522ZM52.8888 20V7.38H48.9888V5.38H58.9488V7.38H55.0488V20H52.8888Z" fill="#05EF95"/>
</svg>
