<svg width="48" height="48" viewBox="0 0 48 48" fill="none" xmlns="http://www.w3.org/2000/svg">
<path d="M13.68 20V5.4H18.26C19.18 5.4 19.98 5.58 20.66 5.94C21.34 6.28667 21.8667 6.78 22.24 7.42C22.6267 8.06 22.82 8.81333 22.82 9.68C22.82 10.6533 22.5667 11.5 22.06 12.22C21.5667 12.9267 20.8933 13.4267 20.04 13.72L23.02 20H20.56L17.9 14H15.84V20H13.68ZM15.84 12.1H18.26C18.98 12.1 19.5533 11.8867 19.98 11.46C20.4067 11.02 20.62 10.44 20.62 9.72C20.62 8.97333 20.4067 8.38667 19.98 7.96C19.5533 7.53333 18.98 7.32 18.26 7.32H15.84V12.1Z" fill="white"/>
<path d="M25.9522 20V18.08H28.8922V7.32H25.9522V5.4H34.0322V7.32H31.0922V18.08H34.0322V20H25.9522Z" fill="#05EF95"/>
<path d="M4.26 42V34.12H1.14V32.16H4.26V30.38C4.26 29.46 4.55333 28.7333 5.14 28.2C5.72667 27.6667 6.52667 27.4 7.54 27.4H10.76V29.32H7.58C7.20667 29.32 6.91333 29.4133 6.7 29.6C6.5 29.7867 6.4 30.0533 6.4 30.4V32.16H10.76V34.12H6.4V42H4.26ZM16.8922 42.2C15.7455 42.2 14.8389 41.9067 14.1722 41.32C13.5189 40.72 13.1922 39.9067 13.1922 38.88C13.1922 37.84 13.5389 37.0267 14.2322 36.44C14.9389 35.84 15.9055 35.54 17.1322 35.54H20.1922V34.52C20.1922 33.92 20.0055 33.4533 19.6322 33.12C19.2589 32.7867 18.7322 32.62 18.0522 32.62C17.4522 32.62 16.9522 32.7533 16.5522 33.02C16.1522 33.2733 15.9189 33.6133 15.8522 34.04H13.7322C13.8522 33.0533 14.3055 32.2667 15.0922 31.68C15.8922 31.0933 16.8989 30.8 18.1122 30.8C19.4189 30.8 20.4522 31.1333 21.2122 31.8C21.9722 32.4533 22.3522 33.3467 22.3522 34.48V42H20.2522V39.98H19.8922L20.2522 39.58C20.2522 40.38 19.9455 41.02 19.3322 41.5C18.7189 41.9667 17.9055 42.2 16.8922 42.2ZM17.5322 40.54C18.3055 40.54 18.9389 40.3467 19.4322 39.96C19.9389 39.56 20.1922 39.0533 20.1922 38.44V37H17.1722C16.6122 37 16.1655 37.1533 15.8322 37.46C15.5122 37.7667 15.3522 38.1867 15.3522 38.72C15.3522 39.28 15.5455 39.7267 15.9322 40.06C16.3189 40.38 16.8522 40.54 17.5322 40.54ZM41.9766 42.2C41.4432 42.2 41.0166 42.0467 40.6966 41.74C40.3766 41.42 40.2166 40.9933 40.2166 40.46C40.2166 39.9133 40.3766 39.48 40.6966 39.16C41.0166 38.8267 41.4432 38.66 41.9766 38.66C42.5232 38.66 42.9499 38.8267 43.2566 39.16C43.5766 39.48 43.7366 39.9133 43.7366 40.46C43.7366 40.9933 43.5766 41.42 43.2566 41.74C42.9499 42.0467 42.5232 42.2 41.9766 42.2Z" fill="white"/>
<path d="M28.9044 42V29.38H25.0044V27.38H34.9644V29.38H31.0644V42H28.9044Z" fill="#05EF95"/>
</svg>
