<svg width="114" height="114" viewBox="0 0 114 114" fill="none" xmlns="http://www.w3.org/2000/svg">
<path d="M59.0584 69.1917V59.2167H69.5084C68.4001 64.2833 64.1251 68.4 59.0584 69.1917ZM62.2251 54.7833H69.5084C69.1917 52.8833 68.5584 51.1417 67.4501 49.5583L62.2251 54.7833ZM54.4667 69.1917V59.375H44.4917C45.6001 64.2833 49.7167 68.2416 54.4667 69.1917ZM59.0584 12.6667V24.5417C66.3417 25.0167 72.9917 27.8667 78.2167 32.4583L86.7667 23.9083C79.1667 17.4167 69.5084 13.1417 59.0584 12.6667ZM89.7751 27.2333L81.2251 35.7833C85.6584 41.0083 88.5084 47.5 88.9834 54.7833H101.333C100.7 44.175 96.5834 34.5167 89.7751 27.2333ZM44.4917 54.7833H54.4667V44.3333C49.4001 45.2833 45.2834 49.4 44.4917 54.7833ZM59.0584 29.1333V39.5833C62.3834 39.9 65.0751 41.1667 67.6084 43.0667L75.0501 35.625C70.4584 31.9833 65.0751 29.6083 59.0584 29.1333ZM59.0584 44.175V51.4583L64.2834 46.2333C62.7001 45.2833 61.1167 44.4917 59.0584 44.175ZM24.8584 54.7833C25.8084 38.7917 38.4751 25.8083 54.4667 24.7V12.6667C31.8251 13.9333 13.7751 32.1417 12.6667 54.7833H24.8584ZM54.4667 88.825C38.7917 87.7166 26.1251 75.05 24.8584 59.375H12.6667C13.7751 81.8583 31.8251 100.067 54.4667 101.333V88.825ZM88.9834 59.2167C87.7167 75.05 74.8917 87.7166 58.9001 88.6666V101.333C81.8584 100.225 100.067 82.0166 101.175 59.2167H88.9834ZM54.4667 84.2333V73.7833C46.8667 72.675 41.1667 66.8167 39.9001 59.375H29.4501C30.7167 72.5167 41.1667 83.125 54.4667 84.2333ZM29.4501 54.7833H39.9001C40.8501 47.025 46.8667 40.85 54.4667 39.7417V29.2917C41.1667 30.4 30.4001 41.1667 29.4501 54.7833ZM84.5501 59.2167H74.1001C72.9917 66.8167 66.9751 72.8333 59.0584 73.7833V84.2333C72.5167 83.2833 83.2834 72.675 84.5501 59.2167ZM70.7751 46.3917C72.5167 48.7667 73.7834 51.6167 74.1001 54.7833H84.5501C84.0751 48.7667 81.8584 43.3833 78.0584 38.95L70.7751 46.3917Z" fill="#00A65F"/>
</svg>
