<svg width="88" height="88" viewBox="0 0 88 88" fill="none" xmlns="http://www.w3.org/2000/svg">
<path d="M41.7828 3.88438C40.3047 4.27969 39.0156 5.07031 37.3141 6.61719C35.0281 8.71406 33.4297 9.22968 30.9375 8.67969C28.3938 8.12968 27.6031 8.06094 26.1766 8.31875C24.4922 8.61094 22.9109 9.38438 21.725 10.5187C20.5047 11.6703 19.8344 12.7703 19.2328 14.5406C18.6484 16.3109 18.2875 16.9297 17.2906 17.8406C16.4141 18.6484 15.5719 19.1125 14.2656 19.4906C11.4297 20.3328 9.10938 22.7219 8.33594 25.6266C7.975 26.95 8.02656 28.7719 8.43906 30.5422C9.12656 33.4125 8.64531 35.0797 6.47969 37.4688C4.45156 39.7031 3.60938 41.6109 3.60938 44C3.60938 46.4406 4.45156 48.2969 6.61719 50.6859C8.69688 52.9547 9.2125 54.5875 8.67969 57.0625C8.12969 59.6234 8.06094 60.3969 8.31875 61.8234C8.61094 63.5078 9.38438 65.0891 10.5188 66.275C11.6703 67.4953 12.7703 68.1656 14.5406 68.7672C16.3109 69.3516 16.9297 69.7125 17.8406 70.7094C18.6313 71.5687 19.1297 72.4453 19.4219 73.5625C19.7656 74.8516 20.6594 76.3469 21.7422 77.4297C24.0109 79.6984 26.9672 80.4203 30.5422 79.5609C33.4125 78.8734 35.0625 79.3375 37.4859 81.5203C39.7203 83.5484 41.6281 84.3906 44.0344 84.3906C46.4406 84.3906 48.3141 83.5484 50.6859 81.3828C53.0922 79.1828 54.6906 78.7188 57.4922 79.4062C61.05 80.2656 64.0234 79.6125 66.275 77.4812C67.4953 76.3297 68.1656 75.2297 68.7672 73.4594C69.3516 71.6891 69.7125 71.0703 70.7094 70.1594C71.5687 69.3687 72.4453 68.8703 73.5625 68.5781C74.8516 68.2344 76.3469 67.3406 77.4297 66.2578C79.6984 63.9891 80.4203 61.0328 79.5609 57.4578C78.8734 54.5875 79.3375 52.9375 81.5203 50.5141C82.2422 49.7234 83.0672 48.6406 83.3594 48.1078C84.7 45.5984 84.7 42.4016 83.3422 39.875C83.0672 39.3422 82.1734 38.1906 81.3828 37.3141C79.6297 35.3891 79.1828 34.4094 79.1828 32.4844C79.1828 31.7797 79.3203 30.6969 79.475 30.0781C79.8359 28.7719 79.8703 26.8641 79.5781 25.575C78.8734 22.6359 76.45 20.1094 73.4938 19.2328C71.9469 18.7859 71.0531 18.2703 70.1766 17.3078C69.3688 16.4313 68.8703 15.5547 68.5781 14.4375C68.2344 13.1484 67.3406 11.6531 66.2578 10.5703C63.9891 8.30156 61.0328 7.57969 57.4578 8.43906C54.5875 9.12656 52.9203 8.64531 50.5312 6.47968C48.9328 5.03593 47.6609 4.2625 46.1484 3.86719C44.8937 3.54063 43.0203 3.55781 41.7828 3.88438ZM46.5781 6.54844C47.1281 6.80625 48.1422 7.5625 48.9672 8.31875C50.5656 9.77969 51.8547 10.5359 53.4875 10.9141C54.9656 11.2578 55.9281 11.2406 57.8016 10.8109C60.7063 10.1578 62.7 10.5531 64.4531 12.1344C65.3641 12.9594 65.7078 13.5609 66.3609 15.3828C67.5125 18.6828 69.1969 20.3328 72.6 21.4844C74.3187 22.0516 75.3672 22.7562 76.1234 23.8219C77.4641 25.6609 77.6531 26.95 77.0516 29.9578C76.6391 32.0375 76.6219 32.3469 76.7938 33.6016C77.0859 35.6125 77.8422 37.0562 79.5781 38.9297C81.5203 41.0266 81.8984 41.8516 81.8984 44C81.8984 45.4437 81.8469 45.7531 81.4172 46.6297C81.1422 47.1797 80.3859 48.1937 79.75 48.8984C78.3578 50.3937 77.8766 51.1156 77.3609 52.4906C76.7938 54.0203 76.725 55.7906 77.1547 57.6984C77.6188 59.7437 77.6188 61.0844 77.1547 62.3047C76.3984 64.3156 75.1266 65.4844 72.7031 66.3266C69.3172 67.5125 67.6844 69.1797 66.5156 72.6C65.5703 75.4187 64.0063 76.8453 61.325 77.3438C60.5516 77.4984 60.0359 77.4469 58.0422 77.0687C55.8422 76.6391 55.55 76.6219 54.3469 76.8109C52.3703 77.1031 50.9094 77.8766 49.0703 79.5781C46.9734 81.5203 46.1484 81.8984 44 81.8984C41.8859 81.8984 41.0094 81.5031 39.0156 79.6641C36.2141 77.0859 33.7219 76.3812 30.25 77.1719C28.325 77.6187 26.8984 77.6016 25.6953 77.1547C23.7875 76.45 22.4641 75.0578 21.8281 73.0984C20.6594 69.5578 18.8375 67.65 15.5891 66.6016C12.6844 65.6562 11.1375 64.0234 10.6734 61.4109C10.5016 60.5 10.5359 60.0875 10.9313 58.0766C11.3438 55.9797 11.3609 55.6531 11.1891 54.3984C10.9141 52.3875 10.1578 50.9437 8.42188 49.0703C6.47969 46.9734 6.10156 46.1484 6.10156 44C6.10156 41.9031 6.49688 41.0094 8.31875 39.0328C9.77969 37.4344 10.5359 36.1453 10.9141 34.5125C11.2578 33.0344 11.2406 32.0719 10.8109 30.1984C10.3297 28.0844 10.4156 26.4 11.0688 25.1281C11.9625 23.375 13.1828 22.3609 15.125 21.7422C18.3906 20.6937 20.3672 18.7516 21.3984 15.5891C22.3438 12.6844 23.9594 11.1547 26.5547 10.6734C27.4656 10.5016 27.8609 10.5359 29.9062 10.9313C32.0375 11.3609 32.3469 11.3781 33.6016 11.2062C35.5953 10.9141 37.0563 10.1578 38.8953 8.43906C41.1125 6.41093 42.0406 5.98125 44.2578 6.06718C45.2891 6.10156 45.8734 6.23906 46.5781 6.54844Z" fill="#00A65F"/>
<path d="M40.7345 16.1562C35.9048 16.8266 31.4361 18.5797 27.6548 21.2609C25.6267 22.6875 22.6017 25.7297 21.1923 27.7234C19.8001 29.7 18.2017 32.8625 17.4626 35.0969C14.6267 43.6391 15.9845 52.8859 21.1923 60.2766C22.5845 62.2531 25.6267 65.2781 27.6548 66.7391C39.5829 75.2469 56.0657 73.1844 65.3814 62.0469C70.9501 55.3953 73.1329 46.7328 71.397 38.1906C70.7267 34.8562 68.8876 30.6797 66.8079 27.7234C65.4845 25.8328 62.2361 22.5672 60.4142 21.2953C56.9079 18.8203 52.9892 17.1531 48.8642 16.4141C47.0767 16.0875 42.3157 15.9328 40.7345 16.1562ZM49.0017 18.8891C54.1923 19.9891 58.3689 22.2406 62.0642 25.9359C65.7595 29.6484 67.9939 33.7734 69.1111 39.0156C69.6611 41.5766 69.6782 46.3719 69.1282 48.9156C68.0111 54.1578 65.7423 58.3516 62.047 62.0469C58.3517 65.7422 54.1579 68.0109 48.9157 69.1281C46.372 69.6781 41.5767 69.6609 39.0157 69.1109C33.7736 67.9937 29.6486 65.7594 25.9361 62.0641C22.2236 58.3516 20.0236 54.2437 18.872 48.9156C18.322 46.3891 18.3392 41.5766 18.8892 39.0156C20.0064 33.7734 22.2407 29.6312 25.9361 25.9531C30.0611 21.8281 35.0798 19.3531 40.8204 18.5797C42.6939 18.3219 47.0767 18.4937 49.0017 18.8891Z" fill="#00A65F"/>
<path d="M53.2641 31.3328C52.8344 31.4531 52.1469 31.7625 51.7172 32.0031C51.3047 32.2609 48.5719 34.8563 45.6328 37.7953L40.3219 43.1406L38.4141 41.25C36.0766 38.9469 35.4062 38.6031 33.4297 38.6031C32.3641 38.6031 31.8828 38.6891 31.2641 38.9984C30.0953 39.5485 29.2016 40.3906 28.6172 41.4391C28.1531 42.2813 28.1016 42.5047 28.1016 44C28.1016 46.4063 28.1875 46.5266 33.55 51.8375C38.4141 56.6672 38.5688 56.7875 40.3047 56.7875C42.1438 56.8047 42.0406 56.8906 51.0641 47.8328C60.3281 38.5516 59.9844 38.9641 59.9844 36.6781C59.9844 34.4953 58.9016 32.725 57.0109 31.8141C55.7563 31.1953 54.3813 31.0234 53.2641 31.3328ZM56.0484 33.9453C57.4578 34.6844 58.025 36.7813 57.1828 38.1906C56.9422 38.6031 53.2812 42.3844 49.0359 46.5953C40.8891 54.7078 40.8719 54.725 39.7375 54.2953C39.2047 54.1063 31.0406 46.0453 30.6625 45.3406C30.3531 44.7563 30.3531 43.4672 30.6625 42.7453C31.1609 41.5422 32.6047 40.786 33.9969 40.9922C34.7531 41.0953 34.9766 41.2844 37.125 43.3985C39.6172 45.8391 40.0297 46.1485 40.6141 45.9594C40.8203 45.9078 43.6734 43.1922 46.9391 39.9266C51.4078 35.475 53.0406 33.9453 53.5562 33.7563C54.2953 33.4813 55.2922 33.5672 56.0484 33.9453Z" fill="#00A65F"/>
</svg>
